<?xml version="1.0" encoding="utf-8"?>
<!-- Generator: Adobe Illustrator 18.0.0, SVG Export Plug-In . SVG Version: 6.00 Build 0)  -->
<!DOCTYPE svg PUBLIC "-//W3C//DTD SVG 1.1//EN" "http://www.w3.org/Graphics/SVG/1.1/DTD/svg11.dtd">
<svg version="1.1" id="Layer_1" xmlns="http://www.w3.org/2000/svg" xmlns:xlink="http://www.w3.org/1999/xlink" x="0px" y="0px"
	 viewBox="0 0 283.5 283.5" enable-background="new 0 0 283.5 283.5" xml:space="preserve">
<linearGradient id="SVGID_1_" gradientUnits="userSpaceOnUse" x1="510.8614" y1="165.2305" x2="510.8614" y2="-24.8403">
	<stop  offset="0" style="stop-color:#35BA99"/>
	<stop  offset="1" style="stop-color:#F382A1"/>
</linearGradient>
<path fill="url(#SVGID_1_)" d="M594.1,165.2H427.6c-6.5,0-11.8-5.3-11.8-11.8V-13.1c0-6.5,5.3-11.8,11.8-11.8h166.5
	c6.5,0,11.8,5.3,11.8,11.8v166.5C605.9,160,600.6,165.2,594.1,165.2z"/>
<g>
	<path fill="#FFFFFF" d="M-160.2,394.1c-2,0.4-3.6,1.3-4.9,2.7c-1.3,1.4-2.1,3-2.6,4.8c-0.5,1.8-0.5,3.7-0.2,5.7
		c0.3,2,1,3.8,2.1,5.3c1.1,1.6,2.6,2.8,4.4,3.7c1.8,0.9,4,1.2,6.6,0.8c2.8-0.4,5.4-1.4,7.6-3c2.2-1.6,3.8-3.5,4.7-5.6
		c0.6-1.5,1-3.2,1.1-4.9c0.1-1.7-0.1-3.4-0.6-5.1c-0.5-1.7-1.3-3.4-2.4-5c-1.1-1.6-2.5-3.1-4.3-4.5c-1.7-1.2-3.1-2.6-4.3-4.2
		c-1.2-1.6-2.2-3.2-2.9-5c-0.7-1.8-1.1-3.6-1.3-5.5c-0.2-1.9,0-3.8,0.5-5.6c-2.1-1.5-3.8-3.4-5.1-5.7c-1.3-2.1-2-4.1-1.9-6.3
		c0.1-2.1,0.5-4.1,1.3-5.9c0.8-1.8,1.8-3.4,3.1-4.7c1.3-1.3,2.5-2.3,3.7-2.8c1.2-0.5,2.1-0.5,2.8-0.1c0.7,0.5,0.9,1.6,0.6,3.4
		c-0.3,2.1-0.3,4,0,5.8c0.4,1.8,1,3.5,1.9,5.1c3.1-3,6.7-5.5,10.9-7.3c4.2-1.9,8.6-2.7,13.2-2.6c3.5,0.1,6.4,0.8,8.7,2.2
		c2.3,1.4,3.9,3.1,4.9,5.1c1,2,1.3,4.2,1.1,6.5c-0.3,2.3-1.2,4.5-2.8,6.6c-1.6,2-3.8,3.8-6.7,5.2c-2.9,1.4-6.4,2.2-10.6,2.4
		c-4.5,0.2-9-0.3-13.6-1.3c0.7,1,1.6,2,2.6,3c1,1,2.2,2,3.5,2.9c2.7,2.1,4.8,4.4,6.3,6.7c1.5,2.3,2.6,4.7,3.2,7.2
		c0.6,2.4,0.8,4.9,0.5,7.3c-0.3,2.4-0.8,4.8-1.6,7c-0.8,2.1-2.1,4.2-3.7,6.1c-1.6,2-3.5,3.7-5.6,5.2c-2.1,1.5-4.5,2.7-7,3.6
		c-2.6,0.9-5.2,1.4-7.9,1.4c-4.6,0.1-8.8-0.7-12.6-2.5c-3.8-1.8-6.9-4.1-9.3-6.9c-2.3-2.8-3.8-6-4.3-9.5c-0.5-3.5,0.2-7,2.2-10.3
		c1.5-2.5,3.1-4.3,5-5.4c1.8-1.1,3.6-1.7,5.4-1.9c1.8-0.2,3.5,0,5,0.5c1.5,0.5,2.8,1.2,3.7,1.9c0.9,0.7,1.3,1.5,1.3,2.2
		C-158.3,393.3-158.9,393.8-160.2,394.1z M-143.3,364.5c2.4,1.5,4.9,2.6,7.7,3.2c2.7,0.7,5.3,0.8,7.9,0.4c2.7-0.4,4.7-1.4,6.1-2.8
		c1.4-1.4,2.1-2.9,2.2-4.4c0.1-1.5-0.4-2.9-1.6-4c-1.2-1.2-2.9-1.8-5.2-1.8c-1.3,0-2.8,0.2-4.3,0.6c-1.5,0.4-3,0.9-4.5,1.6
		c-1.4,0.7-2.8,1.5-4,2.5c-1.3,0.9-2.3,2-3.1,3.1L-143.3,364.5z"/>
	<path fill="#FFFFFF" d="M-87.2,360.1c3.3-0.4,6.3-0.9,9.1-1.2c2.8-0.4,4.9-0.7,6.2-1c1-0.2,1.7-0.1,2,0.2c0.3,0.4,0.3,0.9,0,1.6
		c-0.3,0.7-0.7,1.5-1.4,2.3c-0.7,0.8-1.5,1.6-2.5,2.4c-0.9,0.8-1.9,1.4-2.9,1.9c-1,0.5-1.9,0.8-2.7,0.8h-13.3
		c-1.6,2.2-3.2,4.6-4.9,7c-1.6,2.4-3.1,4.6-4.4,6.5c-1.4,2.1-2.7,4.4-3.8,6.8c-1.1,2.4-1.9,4.6-2.6,6.7c-0.6,2.1-1,3.8-1.1,5.3
		c-0.1,1.5,0.1,2.5,0.7,2.8c0.8,0.5,1.8,0.6,3,0.4c1.3-0.3,2.6-0.9,4.1-1.8c1.5-0.9,3.1-2.2,4.7-3.8c1.6-1.6,3.2-3.5,4.8-5.6
		c0.6-1,1.3-1.7,2-2c0.7-0.3,1.3-0.4,1.7-0.1c0.4,0.2,0.7,0.7,0.7,1.4c0,0.7-0.3,1.7-0.9,2.7c-1.5,2.6-3.3,5.1-5.3,7.3
		c-2,2.2-4,4.1-6.2,5.7c-2.2,1.6-4.4,2.9-6.6,3.8c-2.2,0.9-4.4,1.4-6.6,1.4c-2.2,0-4.1-0.8-5.4-2.4c-1.4-1.6-2-3.9-1.9-7
		c0.1-3.1,1-6.9,2.8-11.5c1.8-4.6,4.8-9.9,9-16c0.7-1,1.5-2.2,2.4-3.6c0.9-1.3,1.8-2.7,2.8-4.1h-9c-0.8,0-1.2-0.2-1.2-0.7
		c0-0.4,0.1-1,0.5-1.5c0.4-0.6,0.9-1.1,1.7-1.6c0.7-0.5,1.5-0.8,2.4-0.8c2.4-0.3,5-0.8,7.7-1.6c2.7-0.8,4.8-1.6,6.5-2.3
		c1.4-0.6,2.9-1.1,4.4-1.7c1.5-0.5,2.8-0.9,3.8-1c1-0.1,1.6,0.1,1.7,0.6c0.1,0.5-0.5,1.5-1.9,3.1L-87.2,360.1z"/>
	<path fill="#FFFFFF" d="M-70.5,375.4c2.3,0,4.3,0.5,5.9,1.4c1.6,0.9,2.9,2.2,3.8,3.8c0.9,1.6,1.3,3.4,1.4,5.6
		c0.1,2.2-0.2,4.5-1,6.9c0.6,0.4,1.4,0.7,2.3,1c0.9,0.3,1.8,0.4,2.7,0.3c0.9-0.1,1.8-0.3,2.7-0.7c0.9-0.4,1.6-1.1,2.2-2
		c0.6-1,1.3-1.7,2.1-2c0.8-0.3,1.4-0.4,1.9-0.1c0.5,0.3,0.7,0.8,0.8,1.5c0,0.7-0.3,1.6-1.1,2.7c-1.2,1.6-2.4,2.8-3.8,3.7
		c-1.4,0.9-2.8,1.5-4.2,1.8c-1.4,0.3-2.8,0.4-4.1,0.2c-1.3-0.2-2.6-0.5-3.7-1.1c-1.1,2-2.4,3.8-3.9,5.5c-1.5,1.7-3.1,3.1-4.8,4.3
		c-1.7,1.2-3.6,2.2-5.5,2.8c-2,0.7-3.9,1-5.9,1c-2.4,0-4.4-0.5-6.1-1.4c-1.7-1-2.9-2.3-3.8-3.9c-0.9-1.6-1.3-3.6-1.3-5.8
		c0-2.2,0.4-4.6,1.2-7.1c0.8-2.5,2-4.9,3.5-7.1c1.5-2.2,3.3-4.1,5.3-5.8c2-1.6,4.1-2.9,6.4-3.9C-75.3,375.8-73,375.4-70.5,375.4z
		 M-77.6,401.8c2.2,0,4.3-0.7,6.2-2.2c1.9-1.4,3.4-3.3,4.5-5.5c-0.9-1.2-1.5-2.3-1.9-3.4c-0.4-1.1-0.6-2.2-0.6-3.2
		c-0.1-1,0-2,0.2-2.8c0.2-0.9,0.5-1.7,0.7-2.4c-0.3-0.1-0.7-0.2-1.1-0.3c-0.4-0.1-0.9-0.1-1.3-0.1c-2.7,0-5.1,1-7.1,2.9
		c-2.1,1.9-3.6,4.3-4.5,7c-0.9,2.8-1,5.1-0.2,7.1C-81.9,400.8-80.2,401.8-77.6,401.8z"/>
	<path fill="#FFFFFF" d="M-9.9,393.6c-1.9,2.8-4,5.3-6.4,7.5c-2.3,2.3-4.7,4.2-7.2,5.7c-2.5,1.6-5.1,2.8-7.7,3.7
		c-2.6,0.9-5.3,1.3-7.9,1.3c-3,0-5.5-0.6-7.5-1.8c-2.1-1.2-3.6-2.8-4.5-4.8c-0.9-2-1.3-4.4-1.1-7.2c0.2-2.8,1.1-5.7,2.7-8.8
		c1.1-2.2,2.5-4.3,4.3-6.3c1.8-2,3.7-3.7,5.9-5c2.2-1.3,4.4-2.2,6.8-2.7c2.4-0.4,4.7-0.1,7,0.8c1.9,0.8,3.3,1.8,4.2,3.2
		c0.9,1.4,1.3,2.8,1.3,4.3c0,1.5-0.5,3-1.3,4.4c-0.9,1.4-2.1,2.5-3.7,3.3c-1.9,1-3.5,1.2-4.8,0.8c-1.3-0.4-2.1-1.2-2.4-2.3
		c-0.4-1.1-0.2-2.4,0.5-3.8c0.7-1.4,2.1-2.7,4-3.7c0.6-0.9,0.5-1.5-0.2-1.7c-0.7-0.3-1.8-0.1-3.1,0.6c-1.3,0.6-2.9,1.8-4.5,3.5
		c-1.7,1.7-3.1,4-4.4,6.9c-0.9,2-1.4,3.7-1.4,5.2c-0.1,1.4,0.1,2.7,0.6,3.7c0.5,1,1.1,1.8,2,2.3c0.8,0.5,1.7,0.9,2.7,1.1
		c1.7,0.3,3.5,0.2,5.6-0.3c2.1-0.5,4.1-1.4,6.2-2.5c2.1-1.1,4-2.5,5.9-4.1c1.9-1.6,3.5-3.4,5-5.3c0.8-1,1.5-1.6,2.3-1.9
		c0.7-0.3,1.3-0.4,1.8-0.1c0.4,0.3,0.7,0.7,0.7,1.4C-8.9,391.7-9.2,392.6-9.9,393.6z"/>
	<path fill="#FFFFFF" d="M-18.9,411.8c-1.1,0-2-0.1-2.7-0.2c-0.7-0.1-1.2-0.5-1.5-1c-0.3-0.5-0.2-1.3,0-2.3c0.3-1,0.9-2.5,2-4.4
		c1-1.8,2.2-4,3.8-6.6c1.6-2.6,3.3-5.4,5.2-8.4c1.9-3,3.9-6.1,6.1-9.4c2.2-3.3,4.3-6.5,6.6-9.6c2.2-3.1,4.4-6.1,6.6-8.9
		c2.2-2.8,4.3-5.3,6.3-7.4c1.7-1.8,3.3-3,4.8-3.6c1.5-0.6,2.9-0.8,4-0.5c1.1,0.3,2,0.9,2.6,2c0.6,1,0.8,2.3,0.6,3.8
		c-0.2,1.8-1,3.6-2.4,5.5c-1.4,1.9-3,3.8-5,5.7c-1.9,1.9-4,3.9-6.2,5.9c-2.2,2-4.2,4.1-6.1,6.1c2.8-1.5,5.3-2.3,7.6-2.3
		c2.2,0,4,0.6,5.3,1.7c1.3,1.1,2.2,2.7,2.5,4.6c0.3,2-0.1,4.1-1.1,6.5c-1.2,2.6-2.5,4.6-4,6.1c-1.5,1.5-3,2.6-4.4,3.4
		c-1.7,0.9-3.4,1.5-5.1,1.9c0,0.7,0.2,1.3,0.5,1.9c0.3,0.5,0.7,1,1.3,1.3c0.6,0.4,1.5,0.6,2.7,0.6c1.2,0,2.6-0.4,4.1-1.1
		c1.5-0.7,3.1-1.7,4.7-2.9c1.6-1.2,3.1-2.6,4.5-4.1c1.4-1.5,2.6-3.1,3.6-4.7c0.6-1,1.3-1.7,2-2.1c0.7-0.4,1.2-0.4,1.7-0.1
		c0.4,0.3,0.7,0.8,0.8,1.5c0.1,0.7-0.2,1.7-0.9,2.7c-1.1,2-2.7,4.1-4.7,6.2c-2.1,2.2-4.2,4.1-6.6,5.9c-2.3,1.8-4.6,3.3-6.9,4.4
		c-2.3,1.2-4.2,1.8-5.6,1.8c-2.4,0-4.5-0.5-6.1-1.5c-1.6-1-3-2.3-4-3.8c-1-1.5-1.8-3.1-2.3-4.8c-0.5-1.7-0.8-3.2-1-4.6
		c-0.2,0.3-0.4,0.6-0.6,1c-0.2,0.3-0.4,0.6-0.5,1l-3.3,6.5c-0.8,1.6-1.4,2.8-1.8,3.7c-0.4,0.9-0.9,1.5-1.5,1.9
		c-0.5,0.4-1.2,0.6-2,0.7C-16.3,411.8-17.4,411.8-18.9,411.8z M10.7,384.4c-1.5-1.2-3.5-1.2-6.1,0.2C2,386-1,389.3-4.2,394.5
		c2.2,0.8,4.4,0.8,6.6,0.2c2.2-0.6,4.1-1.6,5.7-2.8c1.6-1.3,2.6-2.6,3.2-4C11.9,386.4,11.7,385.3,10.7,384.4z"/>
	<path fill="#FFFFFF" d="M46.3,379.5c-3.4,4.8-6,8.6-7.7,11.7c-1.7,3-2.9,5.4-3.5,7.1c-0.6,1.7-0.7,2.9-0.3,3.5c0.4,0.6,0.9,1,1.7,1
		c1.2,0,2.3-0.4,3.3-1.1c1-0.7,2-1.6,2.9-2.8c0.9-1.2,1.8-2.5,2.7-4c0.9-1.5,1.7-3.1,2.6-4.7c0.8-1.7,1.5-3.2,2.1-4.6
		c0.6-1.4,1.3-2.7,2-4.1c0.6-1.2,1.1-2.2,1.6-2.9c0.5-0.7,1-1.3,1.5-1.6c0.5-0.4,1.2-0.7,1.8-0.8c0.7-0.2,1.6-0.3,2.7-0.5
		c1-0.1,2-0.2,2.9-0.3c0.9-0.1,1.6,0,2.1,0.2c0.5,0.2,0.8,0.6,0.9,1.3c0.1,0.6-0.2,1.5-0.9,2.7c-0.6,1.2-1.3,2.5-2.1,3.9
		c-0.8,1.4-1.5,2.8-2.3,4.1c-0.8,1.4-1.5,2.7-2.3,4c-0.8,1.3-1.4,2.4-2,3.4c-1,1.5-2,3.2-2.8,5c-0.9,1.8-1.8,3.6-2.7,5.4
		c3.5-1.3,6.8-3.1,10-5.3c3.2-2.2,6.2-5,8.9-8.5c0.6-0.8,1.3-1.4,2.1-1.8c0.7-0.4,1.3-0.4,1.8-0.2c0.5,0.2,0.7,0.6,0.8,1.3
		c0,0.7-0.3,1.6-1.1,2.7c-1.6,2.5-3.4,4.7-5.4,6.6c-2,1.9-4.1,3.6-6.3,5c-2.2,1.4-4.5,2.7-6.9,3.8c-2.4,1.1-4.8,2-7.1,2.8
		c-1.9,3.3-4,6.3-6.3,9c-2.3,2.7-5.3,4.7-8.9,6c-3.1,1.1-5.8,1.6-8.2,1.4c-2.4-0.1-4.5-0.6-6.2-1.5c-1.7-0.9-3-2.1-3.9-3.6
		c-0.9-1.5-1.3-3.1-1.2-4.8c0.1-1.7,0.6-3.3,1.7-4.9c1.1-1.6,2.7-3,4.9-4.2c1.5-0.8,3.2-1.4,4.9-2c-0.4-1.9-0.2-4.4,0.6-7.4
		c1.1-3.6,2.5-7,4.1-10.1c1.6-3.1,3.3-5.8,5-8.1c0.8-1.1,1.5-2,2.1-2.7c0.6-0.7,1.2-1.3,1.8-1.7c0.6-0.4,1.3-0.7,2-0.9
		c0.7-0.2,1.7-0.4,2.7-0.6c1-0.1,2-0.2,2.8-0.2c0.8,0,1.5,0.1,1.9,0.3c0.4,0.3,0.6,0.7,0.5,1.3C47.5,377.6,47,378.4,46.3,379.5z
		 M23.7,420.6c1.8,0,3.9-0.7,6.2-2.1c2.3-1.4,4.8-3.9,7.4-7.3c-1.9-0.4-3.9-0.6-5.8-0.6c-2,0-3.8,0.3-5.5,1
		c-2.1,0.7-3.6,1.6-4.6,2.6c-1,1-1.6,2-1.7,2.9c-0.1,1,0.2,1.8,0.9,2.5C21.1,420.2,22.2,420.6,23.7,420.6z"/>
</g>
<rect x="-174.2" y="304.8" fill="#FFFFFF" width="15.8" height="15.8"/>
<path fill="#FFFFFF" d="M506.2,50.9V28h-0.5c-3.2,0-5.9-2.6-5.9-5.9s2.6-5.9,5.9-5.9h0.5v-6c0-3.8,3.1-6.8,6.8-6.8
	c3.8,0,6.8,3.1,6.8,6.8v6h6c3.2,0,5.9,2.6,5.9,5.9s-2.6,5.9-5.9,5.9h-6v20.6c0,3.2,1.4,4.7,4.4,4.7c0.4,0,1.4-0.1,1.6-0.1
	c3.1,0,5.7,2.5,5.7,5.7c0,2.4-1.6,4.4-3.5,5.1c-2.5,1-4.9,1.4-7.8,1.4C511.9,65.4,506.2,62.1,506.2,50.9z"/>
<path fill="#FFFFFF" d="M536.4,40.7v-0.2c0-13.9,11.2-25.1,26.2-25.1c14.9,0,26,11.1,26,24.9v0.2c0,13.9-11.2,25.1-26.2,25.1
	C547.5,65.7,536.4,54.6,536.4,40.7z M575.1,40.7v-0.2c0-7.1-5.1-13.3-12.7-13.3c-7.8,0-12.5,6-12.5,13.1v0.2
	c0,7.1,5.1,13.3,12.7,13.3C570.4,53.9,575.1,47.8,575.1,40.7z"/>
<path fill="#FFFFFF" d="M484.4,128.9c0,3.8-3.1,6.8-6.8,6.8s-6.8-3.1-6.8-6.8v-0.6c-3.3,4.5-7.9,7.8-15,7.8c-11.3,0-22-8.8-22-24.9
	V111c0-16.1,10.5-24.9,22-24.9c7.3,0,11.8,3.3,15,7.2V75.8c0-3.8,3.1-6.8,6.8-6.8s6.8,3.1,6.8,6.8V128.9z M447.4,111v0.2
	c0,8,5.4,13.3,11.8,13.3c6.4,0,11.7-5.3,11.7-13.3V111c0-8-5.3-13.3-11.7-13.3C452.8,97.7,447.4,102.9,447.4,111z"/>
<path fill="#FFFFFF" d="M491.8,111.3v-0.2c0-13.9,11.2-25.1,26.2-25.1c14.9,0,26,11.1,26,24.9v0.2c0,13.9-11.2,25.1-26.2,25.1
	C502.8,136.3,491.8,125.2,491.8,111.3z M530.5,111.3v-0.2c0-7.1-5.1-13.3-12.7-13.3c-7.8,0-12.5,6-12.5,13.1v0.2
	c0,7.1,5.1,13.3,12.7,13.3C525.8,124.5,530.5,118.5,530.5,111.3z"/>
<path fill="#FFFFFF" d="M580.5,119.2L580.5,119.2c-4.3,0-7.7-3.5-7.7-7.7v0c0-4.3,3.5-7.7,7.7-7.7l0,0c4.3,0,7.7,3.5,7.7,7.7v0
	C588.2,115.7,584.7,119.2,580.5,119.2z"/>
<path fill="#FFFFFF" d="M441.5,47.8L441.5,47.8c-4.3,0-7.7-3.5-7.7-7.7v0c0-4.3,3.5-7.7,7.7-7.7h0c4.3,0,7.7,3.5,7.7,7.7v0
	C449.2,44.4,445.8,47.8,441.5,47.8z"/>
<g>
	<path fill="#FFFFFF" d="M90,169.2c-6.4,0-11.8,5.2-11.8,13.3v0.2c0,8,5.4,13.3,11.8,13.3c6.4,0,11.7-5.3,11.7-13.3v-0.2
		C101.7,174.5,96.4,169.2,90,169.2z"/>
	<path fill="#FFFFFF" d="M193.3,98.8c-7.8,0-12.5,6-12.5,13.1v0.2c0,7.1,5.1,13.3,12.7,13.3c7.8,0,12.5-6,12.5-13.1v-0.2
		C206,105,200.8,98.8,193.3,98.8z"/>
	<path fill="#FFFFFF" d="M148.7,169.4c-7.8,0-12.5,6-12.5,13.1v0.2c0,7.1,5.1,13.3,12.7,13.3c7.8,0,12.5-6,12.5-13.1v-0.2
		C161.4,175.6,156.2,169.4,148.7,169.4z"/>
	<path fill="#FFFFFF" d="M225,46.7H58.5c-6.5,0-11.8,5.3-11.8,11.8V225c0,6.5,5.3,11.8,11.8,11.8H225c6.5,0,11.8-5.3,11.8-11.8V58.5
		C236.8,52,231.5,46.7,225,46.7z M136.6,87.9h0.5v-6c0-3.8,3.1-6.8,6.8-6.8c3.8,0,6.8,3.1,6.8,6.8v6h6c3.2,0,5.9,2.6,5.9,5.9
		c0,3.2-2.6,5.9-5.9,5.9h-6v20.6c0,3.2,1.4,4.7,4.4,4.7c0.4,0,1.4-0.1,1.6-0.1c3.1,0,5.7,2.5,5.7,5.7c0,2.4-1.6,4.4-3.5,5.1
		c-2.5,1-4.9,1.4-7.8,1.4c-8.4,0-14-3.3-14-14.5V99.6h-0.5c-3.2,0-5.9-2.6-5.9-5.9C130.8,90.5,133.4,87.9,136.6,87.9z M72.4,103.9
		c4.3,0,7.7,3.5,7.7,7.7c0,4.3-3.5,7.7-7.7,7.7c-4.3,0-7.7-3.5-7.7-7.7C64.7,107.4,68.1,103.9,72.4,103.9z M115.2,200.4
		c0,3.8-3.1,6.8-6.8,6.8c-3.8,0-6.8-3.1-6.8-6.8v-0.6c-3.3,4.5-7.9,7.8-15,7.8c-11.3,0-22-8.8-22-24.9v-0.2
		c0-16.1,10.5-24.9,22-24.9c7.3,0,11.8,3.3,15,7.2v-17.5c0-3.8,3.1-6.8,6.8-6.8c3.8,0,6.8,3.1,6.8,6.8V200.4z M174.9,182.7
		c0,13.9-11.2,25.1-26.2,25.1c-14.9,0-26-11.1-26-24.9v-0.2c0-13.9,11.2-25.1,26.2-25.1c14.9,0,26,11.1,26,24.9V182.7z M211.4,190.7
		c-4.3,0-7.7-3.5-7.7-7.7c0-4.3,3.5-7.7,7.7-7.7c4.3,0,7.7,3.5,7.7,7.7C219.1,187.2,215.6,190.7,211.4,190.7z M219.5,112.1
		c0,13.9-11.2,25.1-26.2,25.1c-14.9,0-26-11.1-26-24.9v-0.2c0-13.9,11.2-25.1,26.2-25.1c14.9,0,26,11.1,26,24.9V112.1z"/>
</g>
</svg>
